<svg xmlns="http://www.w3.org/2000/svg" xmlns:xlink="http://www.w3.org/1999/xlink" viewBox="0 0 1920 1920">
  <defs>
    <style>
     .cls-1 {
        isolation: isolate;
      }

      .cls-2 {
        fill-rule: evenodd;
      }

      .cls-3 {
        mask: url(#mask);
        pointer-events: none;
      }

      #shadow {
        pointer-events: none;
      }

      #horns {
        pointer-events:none;
      }

      #neck_crystals {
        pointer-events:none;
      }

      #leg_crystals {
        pointer-events:none;
      }

      #wing_crystals {
        pointer-events:none;
      }

      #tail_crystals {
        pointer-events:none;
      }


      #body {
        cursor: pointer;
      }

      #wings {
        cursor: pointer;
      }

      #eye {
        cursor: pointer;
      }

      .hide {
        display:none;
      }

      .highlight :hover {
      opacity: 85%;
      cursor: pointer;
      }
    </style>
    <mask id="mask" width="1920" height="1920" maskUnits="userSpaceOnUse">
      <g id="Layer_13Opacity_Mask" data-name="Layer 13Opacity Mask">
        <image id="Layer_13Opacity_Mask-2" data-name="Layer 13Opacity Mask" width="1920" height="1920" xlink:href="theDragon9.png"/>
      </g>
    </mask>
  </defs>
    <g id="shadow">
      <image id="shadow_Image" data-name="shadow Image" width="1846" height="1467" transform="translate(32 168)" xlink:href="theDragon1.png"/>
    </g>
    <g class="highlight">
    <g id="body" class="cls-1 highlight">
      <path class="cls-2" d="M1793,966c-24.48-32.36-48.25-64.8-73-97-11.88-15.45-23.08-31.52-35-47-6.81-8.85-13-19.64-20-27-8.38-8.86-43-66.73-51-68-2.91-6.38,2.06-11.91,7-16,25.54,2.94,27.74,25.28,39,43,21.43,33.74,58.37,62.19,73,102l4,3h1c7.6-54.09-5.51-103.73-19-145-41.34-126.48-119.29-191.49-226-252-53.48-30.33-135.46-39.83-172-87,11.86-12.17,28.6-11.56,47-18,22.1-7.74,43.2-17.23,67-27,57.09-23.44,110.89-48.85,159-81,11-7.38,17.94-19.51,28-27,15-11.16,39.5-23,48-40-.33-.67-.67-1.33-1-2-53.93,18.95-94.2,50.49-139,79-26.46,16.84-67.33,26.74-99,36-46.81,13.69-115.88,14.62-141,50-16.78,23.64-20.94,66.63-8,96,13.59,30.84,57.09,49.7,80,69l18,4c65.57,39.83,177.41,94.41,205,166v1c-44.92-19.36-83.37-57.58-122-85-34.69-24.63-72.62-43.13-108-68-15.12-10.63-24.72-29.78-42-38-22.86-10.88-53.85-7.7-78-17-53.63-20.65-105.6-47.57-158-69-24-9.82-44.77-11-67-20l-2,2s7.73,12.06,7,22c-9.39,7.36-17.6,14.41-35,14v-8h-6l-1,1c2.41,6.4,15.65,46.69,13,55-4.45,14-16.09,23.44-10,46,10.65,39.44,51.34,75.43,69,112v40c-6.45,12.9-41,44.49-73.07,69.42-8.29,6.45-18.52,9.46-25.93,14.58-12,8.25-20,17.2-26,19,2.86-8.84,10.59-15.34,17-23,11.62-13.89,24.18-28.08,33-42-42.27,14.63-77.9,41.64-111,68-10.32,8.22-20.51,16.67-31,24-19.11,13.36-39,23.19-57,38h-4c-15.1-22.28,3-57.73,3-84,0-45.43-1.16-76.92-8-112-1.24-6.35-.32-12.16,0-18,1-18.19,5.82-34.84,0-54-10.84-35.71-50.93-19.59-84-21-17.57-.75-47.12,21.82-64,28-62.52,22.88-128.76,46-197,67h-9c2.5-15.21,43.16-40.7,55-51,9-9.33,19-16.67,28-26,25.44-16.16,49.28-38.4,78-49,26-9.59,50-17.49,77-27,18.35-6.46,57.93-19.1,79-16-1.26-1.15-65.63-13.41-73-11-10,3.27-28.38,16.7-41,22-22.66,8.67-44.34,18.33-67,27-14.83,4.92-30.55,5-41,14-8,10-18,20-26,30-5.22,4.68-10.5,7.71-16,12-23.36,18.2-46.92,35-70,54-8.75,7.19-18.06,18.58-30,22l-7-3c7.08-18.72,22-34.3,31-51l31-59c6.57-10.08,18.28-20.16,32-31,26.82-21.19,62.29-41.95,89-48l1-2c-19.84-.09-34.1-8.37-50-4-9.33,2.56-11.49,12.75-18,18-7,5.65-17.77,12.06-27,19-9.7,7.28-17.87,15.09-25,21-9,7.46-24.55,5.14-31,15-6.14,9.38-5,19.5-9,32-2.7,8.45-9,17.17-14,27-15.4,30.08-37.77,63.56-61,75-7.63-5.35-11.42-16.57-16-29-7.68-20.87-14.3-46.46-21-63l-8-8q-2.51-18-5-36c-4.84-8.74-17-7.1-26-4a40.93,40.93,0,0,0-7,14c4.65,8.85,12.49,16.13,14,29,.78,6.61-5.24,12.76-3,22l18,21c2.7,5,3.91,10.69,6,16,6.25,15.9,11.67,32.23,19,48-4.34,3.88-7.67,5.82-9,13-20.37,5.64-80.81-8.47-95-16-6.75-3.58-11-13.25-20-15l-32,10c-25.53,5.08-66.2-3.11-80,2-3.34,2.23-3.15,3.31-3,9,12.37,5.77,39.53,5,67,5l30,1c24.34,9.16,54.13,7.34,83.66,19.34,11.11,4.52,23,5.65,33.34,9.66q-1,9-2,18l3-1c8.44-11,24.94,2.28,36,7,32.43-37.74,85.45-33.47,142-46,62.44-13.84,122.59-32,184-49,19.33-5.36,46.83-15.82,70-17,13.48,13.75,7.25,46.11,1,64-6.88,19.69-13.54,38.72-18,61q-5,51-10,102l-6,44c-19.87,21.09-43.9,24.6-75,33-12.2,3.29-32.4,7.37-36-2l-32,8c2.45,2,.4.57,3,1-.33,1.33-.67,2.67-1,4-10.83-9.56-49.41,2.87-63-6-27.67,16.53-58.85,26.51-89,40-5.3,2.37-6.66,10.15-11,13l-13,3c-7.2,4.81-10.18,16.27-19,20H301c-14.19,4.66-53.64,45.53-59,59-11.45,28.79-7.11,53.78-5,84a32.47,32.47,0,0,1-1.66,11.27c-.52,1.79,1.23,6.86.66,8.73s-3.41.46-3.86,2.39A36.58,36.58,0,0,0,232,1180c2.33,8.33,5.67,14.67,8,23,3.67,3.33,6.33,7.67,10,11,3.24,15.15-5.77,22.75,4,36,7,9.55,13.78,24.52,21.06,32.27,15.73,16.72,34.36,29.64,56.69,44.65,1.58,3.38,4.26,6.75,6.25,10.08,5.46,3.46,11.7-2,16,3,3.89,4.51,9.89,9.46,15,15,4,4.33,8.65,8.2,12.72,12.92,7.45,8.61,15.25,17.35,24.15,24.23,4.19,3.24,8.38,4.63,13.13,6.85s10.38,5.36,16,6.12a59.27,59.27,0,0,0,21-1.12l2-1c-8.62-11.56-30.44-8.57-41-18-21.22-19-32.91-44.72-49-69-8-12-20.49-20.46-27-34l2-2,22,15,21,4,18,14c10.82,6.62,42.83,7.92,57,6,3.6-11.39,17.19-14.93,20-26,5.82-23-20.09-44.72-26-60-6.95-18,6.83-27,10-41l-16-20,5-8c-.68-6-.75-5-5-7q2.5-12,5-24c8-4.64,14.77-9.33,22-14,16.7.37,41.36,8.64,51,15l6,8h8l15,13,12,2c13.34,6.56,23.83,23.76,35,33,4.87,4,13.93,4.31,17,10,8.27,15.31,9.27,28.72,18,42s14.68,11.57,26,20c2.67,6.67,4.33,17.33,7,24-1.58,4-8.34,4-15,7-4,1.81-6.87,7-11.58,8.47-2.79.89-9.6-.27-12.42.53-1.81.51.35,3-1.42,3.48-8,2.15-15.18,4-19.58,5.52l-10-3c-13.43-2.19-29.2,1.86-39,9-7,5.68,3.32,11.67-15,18v17l30,6v1c-8.34,1.26-12.59,2-18,8,2.48,5.47,6.28,6.82,4,15,15.81,3.59,38.1-5.18,50-8l23,1c-3.26,4.9-6.71,8-8,15,7.89.58,11.8,4.67,12,13,7-1.6,16.72-11.35,19.75-10.8,1,.18,1.57-1.36,2.34-2.07,1.7-1.56,2.55-4.16,3.91-6.13,3.23-4.66,4.87-2.9,6.71-5.07,3.15-3.7,6.23-7.63,9.26-11.63,2.23-3,.84-6.32,3-9.3,3.35-4.55,10.25-8.68,13.54-13,6.15-8,12.24-15.11,18.46-20l4,7c-1.61,9.24-6.5,14.31-12.38,18.11-2.08,1.35-6.39,6.73-8.62,7.89-3.54,1.84-6.74.79-10,3a17.84,17.84,0,0,0-6,6c-.23.33-.9,1.44-1.85,3-1.31,2.2-2.2,7.62-4.15,11-1.68,2.88-4.39,3.62-6,6.32l-5,8.68c-1.08,4.12.21,10.07,0,13-.16,2.17-1.87,1.48-2.1,3.47-.21,1.8-3.26,2.57-3.9,4.53s1.26,4.8,0,7l-15,9c-1.23,2.1-.81,8.06-2,10-1.29,2.1-4.2.18-5.53,2.17-1.81,2.72-5.4,4.14-7.47,6.83-1.46,1.89-1.32,4-3,6s-7.3,4.21-9,6-2.25,6.37-4,8a8.58,8.58,0,0,1-1,1,7.59,7.59,0,0,1-3.16.94c-2.65.52-7.72-1.12-10.84-.94-5.48.31-8.77,2.19-9.71,2.29-1.95.21-1.41-.1-2.12-.17-2.12-.18-6-3.86-8.17-4.12-2-.23-2.26,3-4.25,2.69-1.51-.21-3.24,1.55-4.75,1.31s-2.8-2.46-4.3-2.71A373.69,373.69,0,0,1,529,1464c-2.53,1.66-2.44,1.19-4,4-3.42,2.08-2,9.37-4,14,10,8.24,17.87,17.56,32,22l1,2c-1.47,2.57-3.09,2.62-4,4-.58.89-.58,2.57-1,5-30.25-6-58.77,10.25-79,24,.58,4,3.9,12,6,20l19-4-9,12c.35.73,11,19,11,19,15.07-7.69,26.94-16.66,47-18v1c-7.28,6.32-15.46,14.09-20,23,8.36,4.25,9.84,6.6,7,17h3c7.2-5.58,13.73-12.49,24-15h1c2.86,4.61,3.22,8.61,1,15,15.63-.61,37.82-17.62,37-17-.29.22.08-3,2-5,.78-.83,2.73-.92,3.7-1.94,3.41-3.61,7.63-8.09,10.3-11.06,3.25-3.62,9.91-6.46,13-10,2.82-3.24,5.22-10.3,8-13l28-22,6-16,12-9c15.18-19.43,32.32-38.14,51-54,7.33-3,10.67-7,18-10,5.6-3.33,10.19-11,15-14,5.35-3.35,7.6-2.87,13-7,3.93-3,4.25-3.41,7-8,8.67-7.67,16.33-18.33,25-26,8.87-11.84,11.73-22.68,23-32-1-6.28-7.57-12.76-9-19-1.21-5.32,2.71-10.37,1.49-15.89q-.76-3.51-1.49-7.11c-1.51-7.57.22-13.45,1.86-19.55.41-1.52-3.7-1.9-3.86-3.45-.28-2.76,3-6.78,3-10a54.71,54.71,0,0,0-1-10c-.92-3.8.32-1.74-2-5-3.67-5.15-7.69-13.73-4-22,0,0,43.08-34.59,44-35,12.23-5.48,24.87-3.47,36-8,24.19-9.85,40.43-29.24,62-42,20.41-12.07,47.07-15.92,72-24l10,8c-4.4,28.06-25.11,40.26-35,61-3.34,7-2.14,12.19-6,18l-12,11c-3,6.13-4.41,48.72,0,50-10.88,13.3,0,24.62,4,35l3,27c10.29,26.44,36.31,35.23,65,44,4.76,18.29,35.64,1.89,51-2,10.33-2,21.67-3,32-5,5.47,1.93,9.31,8.92,20,7l30-11,24,4c6.86.25,11.56-3.36,20-3-2.56,2.72-7.71,5.32-10,8-1.29,1.51.33,3.21-1.1,4.56a34,34,0,0,1-2.9,2.44c-3.35,2.48-8.34,3.31-12,6l-8,12-16,4-9,13-27,9c-2.93,2.08-3.15,2.69-4,7-7.81-.43-23.32-3-33,1-8.71,3.6-15.06,14-27,16-3.43,4.22-8.36,11.39-3,14-2.12,6.29-6.66,7-10,12,7.37,16,21.91,25.37,29,41,6.37,0,9-2.42,14-6,4.12,8.27,4.25,20.09,12,25,12.3-2.24,27.5-5.54,42.52-9.84,3.24-.93,2.29-5.14,5.48-6.16,3.77-1.21,11.66.77,15.28-.57,5.16-1.9,9.13-5.26,13.72-7.43,6.1-2.88,12.54-4.67,17-8,7.55-5.64,9.33-14.34,15-22,24-32.41,54.45-62.38,80-94,19.1-23.64,55.14-58.3,42-103-21.78-11.1-51.92,11-73,13-17.2,1.6-43.78-5.18-64-7l-2-3c15.81-12.16,35.94-16.11,47-33-.89-10.62-11.16-19.55-19-23-.33-.67-.67-1.33-1-2,15.13-9,29.92-31,38-47,17.79.82,51,2.19,71-3l16-8,76-9,71-25c8-10.15,6.86-9.12,1-21,7.35-8.34,22.32-9.14,27,4,32.39-7.11,91-53.06,104-80l5-5c-30.52-29.67-66.59-58.61-86-101-15.42,3.37-31.63,22.58-47,29-9.29,20.62,1.84,77.6,2,105-15-13.79-19.3-40-29-59-28.78-56.34-52-112.69-74-171-5.39-14.28-18.68-20.72-28-31-15.27-16.85-29.14-35.1-44-52l-22-34c-17.88-18.87-31.45-44.16-49-64-10.3-11.64-14.37-27.08-25-38-8.19-8.41-19.81-5.85-31-12l-9-10c-16.33-11.33-32.67-24.67-49-36-14.1-10.69-21.81-22.76-39-32-19.2-10.31-25.63-36.25-49-43-1.17-4.36-1-5.06-3-9v-1c49.7,18.47,94.84,57.35,139,86,39.25,25.46,75.21,50.32,114,75,28.92,18.4,51.41,49.6,77,72,48,42,93.44,86.51,138,132l24,40c11.33,13.67,19.67,28.33,31,42,2,5.33,7,9.67,9,15,12.12,19.65,25.58,38,40,57,8.66,11.39,18.81,23.18,26,35,14.24,23.39,25.42,49.54,37,73l12,3c3.66-7.09,12.7-10.52,19-15-5.47-15-12.25-34.46-25-42-4.24-2.51-10.14-3.65-15-11-16.48-24.93-30.83-51.46-46-76l-78-124c-8.94-15.56-15.38-40.24-26-54l-31-19c-23.1-16.28-38.68-40.47-64-55l-25-29c-19-18.79-40.66-33.34-61-51-16.2-14.07-24.91-38.13-42-51-15.53-11.7-35.58-14.51-55-23-25.42-11.11-102.5-53.45-118-72,51.86,22,99.58,55.28,151,75,33.88,13,63.13,26.83,92,44l96,71c41.32,28,90.07,62.78,123,99,13.81,15.19,22.65,32.29,35,48s28.2,30,41,46c28.72,36,57.16,77.44,88,112,11.57,13,29.9,32,34,51l9,2c8.47-5.31,10.39-15.85,21-19C1836.3,1002.48,1806.16,983.4,1793,966ZM1102,549c24.84,20.75,48.81,42.8,73,64,38.52,33.76,71.46,68.32,106,106,4,2.33,7,8.67,11,11,11.82,15.11,20.7,26.56,33,41,18,21.09,33.56,43.81,50,67l10,8c3.72,8.06-.89,12.14,4,21,8.11,14.69,22.71,29.23,33,43,9.42,12.6,12,31,19,45,19.44,39.2,42.18,78.72,57,122-.33,1-.67,2-1,3l-2,1c-16.11-27.32-46-44.22-56-79-7.62-4.34-53.8-4.36-71-1l-15,3-15-9c-11.76-4.83-25.81-7.73-37-14-8.44-4.73-23.82-21-34-27-5.48-3.25-8.51,1.76-14-1-16.78-8.43-35.81-23.87-54-32-25.91-11.58-63.79-13.52-89-17-1.8,2,0,.74-3,2-4.56,23.4-4.53,55.49,3,75v3l-42-9-122,1c-7.71-1.9-9-10-15-13s-12.35,2.12-17,1l-10-9c-17.21-6.72-29.58-5.64-41-17-6.62,1.17-8.38,3.69-14,6-11.6-6.93-12.13-30.54-10-48,18.93-2.47,26.79-25.46,43-33,26.79-12.45,38.59-31.31,61-46,51-33.44,87.68-75,132-112,18.43-15.41,68-31.62,69-61-22.18-22-39.87-47.86-61-71-19.86-21.74-43.35-43.35-58-70,11.32,3,22.07,1.33,31,6C1073.66,518.23,1087.19,536.62,1102,549Z"/>
      <path class="cls-2" d="M716,570l3,2Z"/>
      <path class="cls-2" d="M1682,872c7.32,6.65,38.28,48.82,39,60l-23,54h-1v-2c-5.69-8.77-24.66-94-20-106Z"/>
      <path class="cls-2" d="M592,918c-4.69,3.44-7.33,4.36-10,10l12-10Z"/>
      <path class="cls-2" d="M403,945l2,1Z"/>
      <path class="cls-2" d="M346,1219c-.33.67-.67,1.33-1,2l7,8c7.42,1,15.1,1.76,20-2-.33-.67-.67-1.33-1-2C362.78,1222.2,357,1219.17,346,1219Z"/>
      <path class="cls-2" d="M423,1257l2,1Z"/>
      <path class="cls-2" d="M461,1320c7.56,8.51,11.95,24.56,13,39h-1v-2l-15-35Z"/>
    </g>
    </g>
    <g class="highlight">
    <g id="wings" class="cls-1">
      <path class="cls-2" d="M601,441c45.89,1.23,79.26,18.33,117,28v1l-66-8c-7.89,2.67-17.55,12.79-26,17l-64,26c-18.49,7.73-44.82,7.77-59,20l-24,30c-10.42,9.35-23.36,14.85-34,24-15.3,13.16-66.74,60.28-85,64l-6-4c21.33-37.58,54.46-108,85-134,14.75-12.54,28.48-19.24,45-30,9-5.86,21.17-15.78,32-20l17-2,19-10C570.24,437.87,585.35,447.74,601,441Z"/>
      <path class="cls-2" d="M452,451l25,2c-4.81,9.23-55,49.39-65,54-9,4.15-17.06,1.37-23,8-9.81,11-9.64,32.78-16,47-14.78,33.07-37.17,74.2-70,90l-3-1c-11.46-30.91-30.43-67.83-42-99q-2.51-18.5-5-37c8.42-13.87,25.5-13.25,41-20,23.91-10.42,48.48-27.83,77-35Z"/>
      <path class="cls-2" d="M837,452c47.74,1.63,36.11,5.91,51,14l15,3,10,12,22,15c16.48,23.49,25.9,58,36,87,9,25.88,23.71,69.63,11,103-10.43,27.37-45.08,35-68,50-49.52,32.35-90.63,71.91-144,100-17.18-5.82-4.89-52.36-2-66,5.52-26.06-2.53-57.33-2-82,.15-7.14,2.77-11.72,0-21-1.94-6.49-2.11-17.52-4-27-5.86-29.47,13.74-64.11-7-85-10.44-10.51-32.61-12-53-8-13.62,2.69-18.12-2.33-24.89.08-5.4,1.92-8.65,6.69-17.11,6.92-15.3.41-30.31,16.44-44,22-44,17.9-92.92,29.54-142,47-20.31,7.22-38.07,18.71-66,19v-3c11.43-19.81,37.95-33.15,55-48,24.13-21,46.36-42,74-59,36-22.15,79.16-38.58,127-50,12.11-2.89,24.45-6.4,37-8,35-4.46,70.78-5.65,104-12.72C816,458.94,821.52,452.74,837,452Z"/>
      <path class="cls-2" d="M984,456c8.37,14.08-17.39,37-7,63,16.15,40.46,49.65,70.45,68,109v40c-11.15,22.07-100.16,95.33-125,103,1.21-4.32,2-4.73,5-7,21.33-31.49,37-42.15,54-72,1.27-2.24,3.24-8.66,4-12,3.51-15.55,3.73-36.8,2-44-1.33-9-4.67-20-6-29a529.54,529.54,0,0,0-17-51c-4.39-11.35-11.48-23-12.8-34.21A60.29,60.29,0,0,1,950,501C955,479.3,972.56,471,984,456Z"/>
      <path class="cls-2" d="M1520,877h-5v2c-3.89,7.15-.57,18.81-3,26-.33-1.33,1.33-2.67,1-4-.07,9.55,1.15,18.36,2,28,1.51,17.18,2.3,30,4,45,1.33-1.33,1.67,2.33,3,1q2,51.5,4,103l-2-1c-17-31.61-30.64-64.9-46-98-8.33-18-17.45-36.39-25-55-4-5.33-6-10.67-10-16-10-22.4-12.34-48-26-71l-22-20c-26.43-29-51.33-61.82-75-93-21.2-27.91-37.77-59.24-62-84l-3-11c-8.31-8.57-24.63-6.23-34-14-28.93-24-60.17-46.38-88.39-71.37a87.7,87.7,0,0,0-14.06-9.79c-2.34-1.36-4.64-4.92-6.55-6.84-1.21-1.21-.76-3.55-4-6.48-11.13-10.11-31.28-25.25-31-27.52-1-1.33-1-4.67-2-6l1-1c17.34,9.4,34,16.7,51,27,68.18,41.42,134.12,91.41,201,134,28.91,18.41,51.42,49.58,77,72,48,42.07,93.56,86.42,138,132l28,46c32,35,50.28,77.07,80,113,11.18,13.51,32.65,36.67,35,57-29.75-16.62-60-48.55-86-79-12.36-14.48-20.65-28.58-29-42-16.74-26.89-26.29-54.5-50-74h-1Z"/>
      <path class="cls-2" d="M1156,495l44,21,96,48c19.09,9.74,42.24,14.06,61,25,77.75,45.32,150.07,96.4,216,154,14.3,12.49,31.29,26,44,40,18.61,20.47,31.91,45,50,66l18,15c13.65,19.25,24.83,39.11,40,57,18.87,22.26,48,45.18,60,73-34.37-23.59-80.91-85-102-122l-7,6c-.45,40.92,15.31,76.48,20,112,1.81,13.74,9.47,26.54,8,41l2-3v10l2-3v10l2-3c.33,3.33.67,6.67,1,10,.33-1,.67-2,1-3-.33,2.33-.67,4.67-1,7l2-3v7c-15-7.74-42.43-61.91-52-79-26-39.66-50-79.34-76-119-7.44-12.4-17.67-28-23-40q-5.51-14-11-28l-31-19c-23.1-16.28-38.69-40.45-64-55l-25-29c-19-18.79-40.65-33.36-61-51-19.15-16.6-28.71-43.49-51-57-13.49-8.18-30.67-10.31-46-17-27.66-12.06-53.22-27.55-78-43C1182.4,515.14,1165.45,506,1156,495Z"/>
      <path class="cls-2" d="M1025,503c11.35,2.91,22.08,1.35,31,6,17.68,9.22,31.12,27.69,46,40,24.94,20.63,48.85,42.74,73,64,99.54,87.62,184.92,186.78,251,305,27.64,49.45,50.84,102.47,72,159l-3,4v-2c-13.27-7.82-22.64-26-33-38-14.68-17.07-22.77-33.46-32-55-4.7-11-7.21-22-12.61-32.2-8.06-18.13-17.72-33.47-27.39-48.8-15-25.79-23.23-54.19-40-79l-31-29-39-47c-15.93-8.61-37.55-4.55-55-1-31.23,6.36-69.62,1.62-92,17-3,2.08-9.27,13.31-13,28-2.72,10.72-3,23.79-5,34s-4.65,17.89-4,22c1,6.38,8.52,17.35,14,29,4.74,10.07,7.39,20.76,10,28l-2,1c-5.89-2.79-19.48-5.09-23-2-3,1.26-1.2,0-3,2-8.35,20.39.4,57.38,3,76h-5c-36.92-13.66-68.17-8-116-8H946c-7.71-1.91-9-10-15-13s-12.29,2-17,1l-8-8-24-5c-7.52-3.53-13.41-11.18-23-13l-10,6c-4.41-2.73-19.1-38.17-10-48l10-3c11.49-9.65,18.38-23.21,33-30,26.79-12.45,40.62-28.61,61-46,20.92-17.85,43.13-32.21,64-50,23.75-20.25,44.14-46.91,71-64,13.13-8.35,72.51-39.48,65-59-5.88-11.58-21.23-23.32-30-33C1084.29,579.33,1046.07,540.36,1025,503Z"/>
      <path class="cls-2" d="M221,530c18.13,10.48,7,29.36,10,48l18,20c10.77,20.21,14.77,43.18,25,64-4.81,4.41-7.26,7.18-10,14-29.62.13-73.48-6.17-94-17-6.75-3.56-11-13.28-20-15h-1l-31,10-59,4,2-4c23.4-11.24,44.09-50.27,65-67a594.83,594.83,0,0,1,69-48Z"/>
      <path class="cls-2" d="M676,610c33.51,2.12-2,89.53-6,102h-1v-2c-9.7-20-8-47.71-29-56s-76.06,7-95,12c-52.95,14.12-107.52,21-164,31-21.49,3.8-46.31-.28-66,4l3-4c23.4-11.25,62.07-10.33,90-17,59.2-14.14,122.11-28.63,176-48C603.61,625,663.34,619.57,676,610Z"/>
      <path class="cls-2" d="M1620,712c5.76.52,10.14.79,14,3,16.34,9.36,18.77,32.67,31,47,17,19.87,35.8,40,51,62,31.77,46,59.63,109,96,160-8.17-2.85-36.42-37.51-48-55-5.65-8.54-10.13-15.31-14-20-8.14-9.86-18.31-23.38-28-36-22.73-29.59-44.91-60.86-67-91l-26-33c-2-6-5-10-7-16-4.33-5-7.7-2.79-10-11Z"/>
      <path class="cls-2" d="M1511,883c.33,1.67.67,3.33,1,5C1511.67,886.33,1511.33,884.67,1511,883Z"/>
      <path class="cls-2" d="M1510,891c.33,2,.67,4,1,6C1510.67,895,1510.33,893,1510,891Z"/>
      <polyline class="cls-2" points="230 567 232 546 236 556"/>
    </g>
    </g>
    <g id="eye" class="cls-1 highlight">
      <path class="cls-2" d="M346,1219c10.13-.27,21,2.77,26,8v1l-2,1c-12.32,2.82-19.84-.75-25-8C345.33,1220.33,345.67,1219.67,346,1219Z"/>
    </g>
    <g id="mouth_Image" data-name="mouth Image">
      <image id="mouth_Image-2" data-name="mouth Image" width="148" height="132" transform="translate(340 1279)" xlink:href="theDragon2.png"/>
    </g>
    <g id="shadow" data-name="shadow">
      <image id="Layer_11_Image" data-name="Layer 11 Image" width="1846" height="1467" transform="translate(32 168)" xlink:href="theDragon3.png"/>
    </g>
    <g id="tail_crystals">
      <image id="tail_crystals_Image" class="hide" data-feature="tailCrystals" width="620" height="856" transform="translate(1111 155)" xlink:href="theDragon4.png"/>
    </g>
    <g id="wing_crystals">
      <image id="wing_crystals_Image" class="hide" data-feature="wingCrystals" width="770" height="399" transform="translate(261 378)" xlink:href="theDragon5.png"/>
    </g>
    <g id="neck_crystals">
      <image id="neck_crystals_Image" class="hide" data-feature="neckCrystals" width="597" height="393" transform="translate(153 770)" xlink:href="theDragon6.png"/>
    </g>
    <g id="horns">
      <image id="head_crystals_Image" class="hide" data-feature="horns" width="328" height="459" transform="translate(121 878)" xlink:href="theDragon7.png"/>
    </g>
    <g id="leg_crystals">
      <image id="leg_crystals_Image" class="hide" data-feature="legCrystals" width="446" height="334" transform="translate(586 1120)" xlink:href="theDragon8.png"/>
    </g>
  <g class="cls-3">
    <g id="saddle">
      <image id="Layer_13_Image" class="hide" data-feature="saddle" width="1920" height="1920" xlink:href="theDragon10.png"/>
    </g>
  </g>
</svg>
