<svg xmlns="http://www.w3.org/2000/svg" xmlns:xlink="http://www.w3.org/1999/xlink" viewBox="0 0 1920 1920">
  <defs>
    <style>
      .cls-1 {
        isolation: isolate;
      }

      .cls-2 {
        fill-rule: evenodd;
      }

      .cls-3 {
        mask: url(#mask);
        pointer-events: none;
      }

      #shadow {
        pointer-events: none;
      }

      #horns {
        pointer-events:none;
      }

      #neck_crystals {
        pointer-events:none;
      }

      #leg_crystals {
        pointer-events:none;
      }

      #wing_crystals {
        pointer-events:none;
      }

      #tail_crystals {
        pointer-events:none;
      }


      #body {
        cursor: pointer;
      }

      #wings {
        cursor: pointer;
      }

      #eye {
        cursor: pointer;
      }

      .hide {
        display:none;
      }
      }
    </style>
    <mask id="mask" x="0" y="0" width="1920" height="1920" maskUnits="userSpaceOnUse">
      <g id="Layer_13Opacity_Mask" data-name="Layer 13Opacity Mask">
        <image id="Layer_13Opacity_Mask-2" data-name="Layer 13Opacity Mask" width="1920" height="1920" xlink:href="theDragon9.png"/>
      </g>
    </mask>
  </defs>
    <g id="shadow">
      <image id="shadow_Image" data-name="shadow Image" width="1846" height="1467" transform="translate(32 168)" xlink:href="theDragon1.png"/>
    </g>
    <g id="body" class="cls-1">
      <path class="cls-2" d="M980,414v8c17.4.41,25.61-6.64,35-14,.73-9.94-7-22-7-22l2-2c22.23,9,43,10.18,67,20,52.4,21.43,104.37,48.35,158,69,24.15,9.3,55.14,6.12,78,17,17.28,8.22,26.88,27.37,42,38,35.38,24.87,73.31,43.37,108,68,38.63,27.42,77.08,65.64,122,85v-1c-27.59-71.59-139.43-126.17-205-166l-18-4c-22.91-19.3-66.41-38.16-80-69-12.94-29.37-8.78-72.36,8-96,25.12-35.38,94.19-36.31,141-50,31.67-9.26,72.54-19.16,99-36,44.8-28.51,85.07-60.05,139-79,.33.67.67,1.33,1,2-8.5,17-33,28.84-48,40-10.06,7.49-17,19.62-28,27-48.11,32.15-101.91,57.56-159,81-23.8,9.77-44.9,19.26-67,27-18.4,6.44-35.14,5.83-47,18,36.54,47.17,118.52,56.67,172,87,106.71,60.51,184.66,125.52,226,252,13.49,41.27,26.6,90.91,19,145h-1l-4-3c-14.63-39.81-51.57-68.26-73-102-11.26-17.72-13.46-40.06-39-43-4.94,4.09-9.91,9.62-7,16,8,1.27,42.62,59.14,51,68,7,7.36,13.18,18.15,20,27,11.92,15.48,23.12,31.55,35,47,24.75,32.2,48.52,64.64,73,97,13.16,17.4,43.3,36.48,52,57-10.61,3.15-12.53,13.69-21,19l-9-2c-4.1-19-22.43-38-34-51-30.84-34.56-59.28-76-88-112-12.8-16-28.66-30.31-41-46s-21.19-32.81-35-48c-32.93-36.22-81.69-71-123-99l-96-71c-28.87-17.17-58.12-31-92-44-51.42-19.72-99.14-53-151-75,15.5,18.55,92.58,60.89,118,72,19.42,8.49,39.47,11.3,55,23,17.09,12.87,25.8,36.93,42,51,20.34,17.66,42,32.21,61,51l25,29c25.32,14.53,40.9,38.72,64,55l31,19c10.62,13.76,17.06,38.44,26,54l78,124c15.17,24.54,29.52,51.07,46,76,4.86,7.35,10.76,8.49,15,11,12.75,7.54,19.53,27,25,42-6.3,4.48-15.34,7.91-19,15l-12-3c-11.58-23.46-22.76-49.61-37-73-7.19-11.82-17.34-23.61-26-35-14.42-19-27.88-37.35-40-57-2-5.33-7-9.67-9-15-11.33-13.67-19.67-28.33-31-42l-24-40c-44.56-45.49-90-90-138-132-25.59-22.4-48.08-53.6-77-72-38.79-24.68-74.75-49.54-114-75-44.16-28.65-89.3-67.53-139-86v1c2,3.94,1.83,4.64,3,9,23.37,6.75,29.8,32.69,49,43,17.19,9.24,24.9,21.31,39,32,16.33,11.33,32.67,24.67,49,36l9,10c11.19,6.15,22.81,3.59,31,12,10.63,10.92,14.7,26.36,25,38,17.55,19.84,31.12,45.13,49,64l22,34c14.86,16.9,28.73,35.15,44,52,9.32,10.28,22.61,16.72,28,31,22,58.31,45.22,114.66,74,171,9.7,19,14,45.21,29,59-.16-27.4-11.29-84.38-2-105,15.37-6.42,31.58-25.63,47-29,19.41,42.39,55.48,71.33,86,101l-5,5c-13,26.94-71.61,72.89-104,80-4.68-13.14-19.65-12.34-27-4,5.86,11.88,7,10.85-1,21l-71,25-76,9-16,8c-20,5.19-53.21,3.82-71,3-8.08,16-22.87,38-38,47,.33.67.67,1.33,1,2,7.84,3.45,18.11,12.38,19,23-11.06,16.89-31.19,20.84-47,33l2,3c20.22,1.82,46.8,8.6,64,7,21.08-2,51.22-24.1,73-13,13.14,44.7-22.9,79.36-42,103-25.55,31.62-56,61.59-80,94-5.68,7.66-7.45,16.36-15,22-4.46,3.33-10.9,5.12-17,8-4.59,2.17-8.56,5.53-13.72,7.43-3.62,1.34-11.51-.64-15.28.57-3.19,1-2.24,5.23-5.48,6.16-15,4.3-30.22,7.6-42.52,9.84-7.75-4.91-7.88-16.73-12-25-5,3.58-7.63,6-14,6-7.09-15.63-21.63-25-29-41,3.34-5,7.88-5.71,10-12-5.36-2.61-.43-9.78,3-14,11.94-2,18.29-12.4,27-16,9.68-4,25.19-1.43,33-1,.85-4.31,1.07-4.92,4-7l27-9,9-13,16-4,8-12c3.66-2.69,8.65-3.52,12-6a34,34,0,0,0,2.9-2.44c1.43-1.35-.19-3,1.1-4.56,2.29-2.68,7.44-5.28,10-8-8.44-.37-13.14,3.25-20,3l-24-4-30,11c-10.69,1.92-14.53-5.07-20-7-10.33,2-21.67,3-32,5-15.36,3.89-46.24,20.29-51,2-28.69-8.77-54.71-17.56-65-44l-3-27c-4-10.38-14.88-21.7-4-35-4.41-1.28-3-43.87,0-50l12-11c3.86-5.81,2.66-11,6-18,9.89-20.74,30.6-32.94,35-61l-10-8c-24.93,8.08-51.59,11.93-72,24-21.57,12.76-37.81,32.15-62,42-11.13,4.53-23.77,2.52-36,8-.92.41-44,35-44,35-3.69,8.27.33,16.85,4,22,2.32,3.26,1.08,1.2,2,5a54.71,54.71,0,0,1,1,10c0,3.22-3.28,7.24-3,10,.16,1.55,4.27,1.93,3.86,3.45-1.64,6.1-3.37,12-1.86,19.55q.72,3.6,1.49,7.11c1.22,5.52-2.7,10.57-1.49,15.89,1.43,6.24,8,12.72,9,19-11.27,9.32-14.13,20.16-23,32-8.67,7.67-16.33,18.33-25,26-2.75,4.59-3.07,5-7,8-5.4,4.13-7.65,3.65-13,7-4.81,3-9.4,10.67-15,14-7.33,3-10.67,7-18,10-18.68,15.86-35.82,34.57-51,54l-12,9-6,16-28,22c-2.78,2.7-5.18,9.76-8,13-3.09,3.54-9.75,6.37-13,10-2.67,3-6.89,7.45-10.3,11.06-1,1-2.92,1.11-3.7,1.94-1.92,2-2.29,5.22-2,5,.82-.62-21.37,16.39-37,17,2.22-6.39,1.86-10.39-1-15h-1c-10.27,2.51-16.8,9.42-24,15h-3c2.84-10.4,1.36-12.75-7-17,4.54-8.91,12.72-16.68,20-23v-1c-20.06,1.34-31.93,10.31-47,18,0,0-10.65-18.27-11-19l9-12-19,4c-2.1-8-5.42-16-6-20,20.23-13.75,48.75-30,79-24,.42-2.43.42-4.11,1-5,.91-1.38,2.53-1.43,4-4l-1-2c-14.13-4.44-22-13.76-32-22,2-4.63.58-11.92,4-14,1.56-2.81,1.47-2.34,4-4a373.69,373.69,0,0,0,37.7,8.29c1.5.25,2.79,2.47,4.3,2.71s3.24-1.52,4.75-1.31c2,.28,2.29-2.92,4.25-2.69,2.2.26,6,3.94,8.17,4.12.71.07.17.38,2.12.17.94-.1,4.23-2,9.71-2.29,3.12-.18,8.19,1.46,10.84.94A7.59,7.59,0,0,0,614,1473a8.58,8.58,0,0,0,1-1c1.75-1.63,2.3-6.21,4-8s7.36-4.08,9-6,1.54-4.11,3-6c2.07-2.69,5.66-4.11,7.47-6.83,1.33-2,4.24-.07,5.53-2.17,1.19-1.94.77-7.9,2-10l15-9c1.26-2.2-.59-5.18,0-7s3.69-2.73,3.9-4.53c.23-2,1.94-1.3,2.1-3.47.21-2.93-1.08-8.88,0-13l5-8.68c1.57-2.7,4.28-3.44,6-6.32,2-3.34,2.84-8.76,4.15-11,1-1.6,1.62-2.71,1.85-3a17.84,17.84,0,0,1,6-6c3.26-2.21,6.46-1.16,10-3,2.23-1.16,6.54-6.54,8.62-7.89,5.88-3.8,10.76-8.87,12.38-18.11l-4-7c-6.22,4.94-12.31,12.07-18.46,20-3.29,4.27-10.19,8.4-13.54,13-2.19,3-.8,6.35-3,9.3-3,4-6.11,7.93-9.26,11.63-1.84,2.17-3.48.41-6.71,5.07-1.36,2-2.21,4.57-3.91,6.13-.77.71-1.32,2.25-2.34,2.07-3-.55-12.76,9.2-19.75,10.8-.2-8.33-4.11-12.42-12-13,1.29-7,4.74-10.1,8-15l-23-1c-11.9,2.82-34.19,11.59-50,8,2.28-8.18-1.52-9.53-4-15,5.41-6,9.66-6.74,18-8v-1l-30-6v-17c18.32-6.33,8-12.32,15-18,9.8-7.14,25.57-11.19,39-9l10,3c4.4-1.57,11.62-3.37,19.58-5.52,1.77-.48-.39-3,1.42-3.48,2.82-.8,9.63.36,12.42-.53,4.71-1.51,7.59-6.66,11.58-8.47,6.66-3,13.42-3,15-7-2.67-6.67-4.33-17.33-7-24-11.32-8.43-17.3-6.77-26-20s-9.73-26.69-18-42c-3.07-5.69-12.13-6-17-10-11.17-9.24-21.66-26.44-35-33l-12-2-15-13h-8l-6-8c-9.64-6.36-34.3-14.63-51-15-7.23,4.67-14,9.36-22,14q-2.5,12-5,24c4.25,2,4.32,1,5,7l-5,8,16,20c-3.17,14-16.95,23-10,41,5.91,15.28,31.82,37,26,60-2.81,11.07-16.4,14.61-20,26-14.17,1.92-46.18.62-57-6l-18-14-21-4-22-15-2,2c6.51,13.54,19,22,27,34,16.09,24.28,27.78,50,49,69,10.56,9.43,32.38,6.44,41,18l-2,1a59.27,59.27,0,0,1-21,1.12c-5.66-.76-11.14-3.84-16-6.12s-8.94-3.61-13.13-6.85c-8.9-6.88-16.7-15.62-24.15-24.23-4.07-4.72-8.73-8.59-12.72-12.92-5.11-5.54-11.11-10.49-15-15-4.3-5-10.54.46-16-3-2-3.33-4.67-6.7-6.25-10.08-22.33-15-41-27.93-56.69-44.65-7.28-7.75-14-22.72-21.06-32.27-9.77-13.25-.76-20.85-4-36-3.67-3.33-6.33-7.67-10-11-2.33-8.33-5.67-14.67-8-23a36.58,36.58,0,0,1,.14-17.61c.45-1.93,3.31-.56,3.86-2.39s-1.18-6.94-.66-8.73A32.47,32.47,0,0,0,237,1140c-2.11-30.22-6.45-55.21,5-84,5.36-13.47,44.81-54.34,59-59h12c8.82-3.73,11.8-15.19,19-20l13-3c4.34-2.85,5.7-10.63,11-13,30.15-13.49,61.33-23.47,89-40,13.59,8.87,52.17-3.56,63,6,.33-1.33.67-2.67,1-4-2.6-.43-.55,1-3-1l32-8c3.6,9.37,23.8,5.29,36,2,31.1-8.4,55.13-11.91,75-33l6-44q5-51,10-102c4.46-22.28,11.12-41.31,18-61,6.25-17.89,12.48-50.25-1-64-23.17,1.18-50.67,11.64-70,17-61.41,17-121.56,35.16-184,49-56.55,12.53-109.57,8.26-142,46-11.06-4.72-27.56-18-36-7l-3,1q1-9,2-18c-10.31-4-22.23-5.14-33.34-9.66-29.53-12-59.32-10.18-83.66-19.34l-30-1c-27.47,0-54.63.76-67-5-.15-5.69-.34-6.77,3-9,13.8-5.11,54.47,3.08,80-2l32-10c9,1.75,13.25,11.42,20,15,14.19,7.53,74.63,21.64,95,16,1.33-7.18,4.66-9.12,9-13-7.33-15.77-12.75-32.1-19-48-2.09-5.31-3.3-11-6-16l-18-21c-2.24-9.24,3.78-15.39,3-22-1.51-12.87-9.35-20.15-14-29a40.93,40.93,0,0,1,7-14c9-3.1,21.16-4.74,26,4q2.5,18,5,36l8,8c6.7,16.54,13.32,42.13,21,63,4.58,12.43,8.37,23.65,16,29,23.23-11.44,45.6-44.92,61-75,5-9.83,11.3-18.55,14-27,4-12.5,2.86-22.62,9-32,6.45-9.86,22-7.54,31-15,7.13-5.91,15.3-13.72,25-21,9.23-6.94,20-13.35,27-19,6.51-5.25,8.67-15.44,18-18,15.9-4.37,30.16,3.91,50,4l-1,2c-26.71,6.05-62.18,26.81-89,48-13.72,10.84-25.43,20.92-32,31l-31,59c-9,16.7-23.92,32.28-31,51l7,3c11.94-3.42,21.25-14.81,30-22,23.08-19,46.64-35.8,70-54,5.5-4.29,10.78-7.32,16-12,8-10,18-20,26-30,10.45-9,26.17-9.08,41-14,22.66-8.67,44.34-18.33,67-27,12.62-5.3,31-18.73,41-22,7.37-2.41,71.74,9.85,73,11-21.07-3.1-60.65,9.54-79,16-27,9.51-51,17.41-77,27-28.72,10.6-52.56,32.84-78,49-9,9.33-19,16.67-28,26-11.84,10.3-52.5,35.79-55,51h9c68.24-21,134.48-44.12,197-67,16.88-6.18,46.43-28.75,64-28,33.07,1.41,73.16-14.71,84,21,5.82,19.16,1,35.81,0,54-.32,5.84-1.24,11.65,0,18,6.84,35.08,8,66.57,8,112,0,26.27-18.1,61.72-3,84h4c18-14.81,37.89-24.64,57-38,10.49-7.33,20.68-15.78,31-24,33.1-26.36,68.73-53.37,111-68-8.82,13.92-21.38,28.11-33,42-6.41,7.66-14.14,14.16-17,23,6-1.8,14-10.75,26-19,7.41-5.12,17.64-8.13,25.93-14.58,32-24.93,66.62-56.52,73.07-69.42V628c-17.66-36.57-58.35-72.56-69-112-6.09-22.56,5.55-32,10-46,2.65-8.31-10.59-48.6-13-55l1-1Z"/>
      <path id="wrong" class="cls-2" d="M1025,503c14.65,26.65,38.14,48.26,58,70,21.13,23.14,38.82,49,61,71-1,29.38-50.57,45.59-69,61-44.32,37-81,78.56-132,112-22.41,14.69-34.21,33.55-61,46-16.21,7.54-24.07,30.53-43,33-2.13,17.46-1.6,41.07,10,48,5.62-2.31,7.38-4.83,14-6,11.42,11.36,23.79,10.28,41,17l10,9c4.65,1.12,11-3.92,17-1s7.29,11.1,15,13l122-1,42,9v-3c-7.53-19.51-7.56-51.6-3-75,3-1.26,1.2,0,3-2,25.21,3.48,63.09,5.42,89,17,18.19,8.13,37.22,23.57,54,32,5.49,2.76,8.52-2.25,14,1,10.18,6,25.56,22.27,34,27,11.19,6.27,25.24,9.17,37,14l15,9,15-3c17.2-3.36,63.38-3.34,71,1,10,34.78,39.89,51.68,56,79l2-1c.33-1,.67-2,1-3-14.82-43.28-37.56-82.8-57-122-7-14-9.58-32.4-19-45-10.29-13.77-24.89-28.31-33-43-4.89-8.86-.28-12.94-4-21l-10-8c-16.44-23.19-32-45.91-50-67-12.3-14.44-21.18-25.89-33-41-4-2.33-7-8.67-11-11-34.54-37.68-67.48-72.24-106-106-24.19-21.2-48.16-43.25-73-64-14.81-12.38-28.34-30.77-46-40C1047.07,504.33,1036.32,506,1025,503Z"/>
      <path class="cls-2" d="M716,570l3,2Z"/>
      <path class="cls-2" d="M1682,872c7.32,6.65,38.28,48.82,39,60l-23,54h-1v-2c-5.69-8.77-24.66-94-20-106Z"/>
      <path class="cls-2" d="M592,918c-4.69,3.44-7.33,4.36-10,10l12-10Z"/>
      <path class="cls-2" d="M403,945l2,1Z"/>
      <path class="cls-2" d="M346,1219c-.33.67-.67,1.33-1,2l7,8c7.42,1,15.1,1.76,20-2-.33-.67-.67-1.33-1-2C362.78,1222.2,357,1219.17,346,1219Z"/>
      <path class="cls-2" d="M423,1257l2,1Z"/>
      <path class="cls-2" d="M461,1320c7.56,8.51,11.95,24.56,13,39h-1v-2l-15-35Z"/>
    </g>
    <g id="wings" class="cls-1">
      <path class="cls-2" d="M601,441c45.89,1.23,79.26,18.33,117,28v1l-66-8c-7.89,2.67-17.55,12.79-26,17l-64,26c-18.49,7.73-44.82,7.77-59,20l-24,30c-10.42,9.35-23.36,14.85-34,24-15.3,13.16-66.74,60.28-85,64l-6-4c21.33-37.58,54.46-108,85-134,14.75-12.54,28.48-19.24,45-30,9-5.86,21.17-15.78,32-20l17-2,19-10C570.24,437.87,585.35,447.74,601,441Z"/>
      <path class="cls-2" d="M452,451l25,2c-4.81,9.23-55,49.39-65,54-9,4.15-17.06,1.37-23,8-9.81,11-9.64,32.78-16,47-14.78,33.07-37.17,74.2-70,90l-3-1c-11.46-30.91-30.43-67.83-42-99q-2.51-18.5-5-37c8.42-13.87,25.5-13.25,41-20,23.91-10.42,48.48-27.83,77-35Z"/>
      <path class="cls-2" d="M837,452c47.74,1.63,36.11,5.91,51,14l15,3,10,12,22,15c16.48,23.49,25.9,58,36,87,9,25.88,23.71,69.63,11,103-10.43,27.37-45.08,35-68,50-49.52,32.35-90.63,71.91-144,100-17.18-5.82-4.89-52.36-2-66,5.52-26.06-2.53-57.33-2-82,.15-7.14,2.77-11.72,0-21-1.94-6.49-2.11-17.52-4-27-5.86-29.47,13.74-64.11-7-85-10.44-10.51-32.61-12-53-8-13.62,2.69-18.12-2.33-24.89.08-5.4,1.92-8.65,6.69-17.11,6.92-15.3.41-30.31,16.44-44,22-44,17.9-92.92,29.54-142,47-20.31,7.22-38.07,18.71-66,19v-3c11.43-19.81,37.95-33.15,55-48,24.13-21,46.36-42,74-59,36-22.15,79.16-38.58,127-50,12.11-2.89,24.45-6.4,37-8,35-4.46,70.78-5.65,104-12.72C816,458.94,821.52,452.74,837,452Z"/>
      <path class="cls-2" d="M984,456c8.37,14.08-17.39,37-7,63,16.15,40.46,49.65,70.45,68,109v40c-11.15,22.07-100.16,95.33-125,103,1.21-4.32,2-4.73,5-7,21.33-31.49,37-42.15,54-72,1.27-2.24,3.24-8.66,4-12,3.51-15.55,3.73-36.8,2-44-1.33-9-4.67-20-6-29a529.54,529.54,0,0,0-17-51c-4.39-11.35-11.48-23-12.8-34.21A60.29,60.29,0,0,1,950,501C955,479.3,972.56,471,984,456Z"/>
      <path class="cls-2" d="M1520,877h-5v2c-3.89,7.15-.57,18.81-3,26-.33-1.33,1.33-2.67,1-4-.07,9.55,1.15,18.36,2,28,1.51,17.18,2.3,30,4,45,1.33-1.33,1.67,2.33,3,1q2,51.5,4,103l-2-1c-17-31.61-30.64-64.9-46-98-8.33-18-17.45-36.39-25-55-4-5.33-6-10.67-10-16-10-22.4-12.34-48-26-71l-22-20c-26.43-29-51.33-61.82-75-93-21.2-27.91-37.77-59.24-62-84l-3-11c-8.31-8.57-24.63-6.23-34-14-28.93-24-60.17-46.38-88.39-71.37a87.7,87.7,0,0,0-14.06-9.79c-2.34-1.36-4.64-4.92-6.55-6.84-1.21-1.21-.76-3.55-4-6.48-11.13-10.11-31.28-25.25-31-27.52-1-1.33-1-4.67-2-6l1-1c17.34,9.4,34,16.7,51,27,68.18,41.42,134.12,91.41,201,134,28.91,18.41,51.42,49.58,77,72,48,42.07,93.56,86.42,138,132l28,46c32,35,50.28,77.07,80,113,11.18,13.51,32.65,36.67,35,57-29.75-16.62-60-48.55-86-79-12.36-14.48-20.65-28.58-29-42-16.74-26.89-26.29-54.5-50-74h-1Z"/>
      <path class="cls-2" d="M1156,495l44,21,96,48c19.09,9.74,42.24,14.06,61,25,77.75,45.32,150.07,96.4,216,154,14.3,12.49,31.29,26,44,40,18.61,20.47,31.91,45,50,66l18,15c13.65,19.25,24.83,39.11,40,57,18.87,22.26,48,45.18,60,73-34.37-23.59-80.91-85-102-122l-7,6c-.45,40.92,15.31,76.48,20,112,1.81,13.74,9.47,26.54,8,41l2-3v10l2-3v10l2-3c.33,3.33.67,6.67,1,10,.33-1,.67-2,1-3-.33,2.33-.67,4.67-1,7l2-3v7c-15-7.74-42.43-61.91-52-79-26-39.66-50-79.34-76-119-7.44-12.4-17.67-28-23-40q-5.51-14-11-28l-31-19c-23.1-16.28-38.69-40.45-64-55l-25-29c-19-18.79-40.65-33.36-61-51-19.15-16.6-28.71-43.49-51-57-13.49-8.18-30.67-10.31-46-17-27.66-12.06-53.22-27.55-78-43C1182.4,515.14,1165.45,506,1156,495Z"/>
      <path class="cls-2" d="M1025,503c11.35,2.91,22.08,1.35,31,6,17.68,9.22,31.12,27.69,46,40,24.94,20.63,48.85,42.74,73,64,99.54,87.62,184.92,186.78,251,305,27.64,49.45,50.84,102.47,72,159l-3,4v-2c-13.27-7.82-22.64-26-33-38-14.68-17.07-22.77-33.46-32-55-4.7-11-7.21-22-12.61-32.2-8.06-18.13-17.72-33.47-27.39-48.8-15-25.79-23.23-54.19-40-79l-31-29-39-47c-15.93-8.61-37.55-4.55-55-1-31.23,6.36-69.62,1.62-92,17-3,2.08-9.27,13.31-13,28-2.72,10.72-3,23.79-5,34s-4.65,17.89-4,22c1,6.38,8.52,17.35,14,29,4.74,10.07,7.39,20.76,10,28l-2,1c-5.89-2.79-19.48-5.09-23-2-3,1.26-1.2,0-3,2-8.35,20.39.4,57.38,3,76h-5c-36.92-13.66-68.17-8-116-8H946c-7.71-1.91-9-10-15-13s-12.29,2-17,1l-8-8-24-5c-7.52-3.53-13.41-11.18-23-13l-10,6c-4.41-2.73-19.1-38.17-10-48l10-3c11.49-9.65,18.38-23.21,33-30,26.79-12.45,40.62-28.61,61-46,20.92-17.85,43.13-32.21,64-50,23.75-20.25,44.14-46.91,71-64,13.13-8.35,72.51-39.48,65-59-5.88-11.58-21.23-23.32-30-33C1084.29,579.33,1046.07,540.36,1025,503Z"/>
      <path class="cls-2" d="M221,530c18.13,10.48,7,29.36,10,48l18,20c10.77,20.21,14.77,43.18,25,64-4.81,4.41-7.26,7.18-10,14-29.62.13-73.48-6.17-94-17-6.75-3.56-11-13.28-20-15h-1l-31,10-59,4,2-4c23.4-11.24,44.09-50.27,65-67a594.83,594.83,0,0,1,69-48Z"/>
      <path class="cls-2" d="M676,610c33.51,2.12-2,89.53-6,102h-1v-2c-9.7-20-8-47.71-29-56s-76.06,7-95,12c-52.95,14.12-107.52,21-164,31-21.49,3.8-46.31-.28-66,4l3-4c23.4-11.25,62.07-10.33,90-17,59.2-14.14,122.11-28.63,176-48C603.61,625,663.34,619.57,676,610Z"/>
      <path class="cls-2" d="M1620,712c5.76.52,10.14.79,14,3,16.34,9.36,18.77,32.67,31,47,17,19.87,35.8,40,51,62,31.77,46,59.63,109,96,160-8.17-2.85-36.42-37.51-48-55-5.65-8.54-10.13-15.31-14-20-8.14-9.86-18.31-23.38-28-36-22.73-29.59-44.91-60.86-67-91l-26-33c-2-6-5-10-7-16-4.33-5-7.7-2.79-10-11Z"/>
      <path class="cls-2" d="M1511,883c.33,1.67.67,3.33,1,5C1511.67,886.33,1511.33,884.67,1511,883Z"/>
      <path class="cls-2" d="M1510,891c.33,2,.67,4,1,6C1510.67,895,1510.33,893,1510,891Z"/>
      <polyline class="cls-2" points="230 567 232 546 236 556"/>
    </g>
    <g id="eye" class="cls-1">
      <path class="cls-2" d="M346,1219c10.13-.27,21,2.77,26,8v1l-2,1c-12.32,2.82-19.84-.75-25-8C345.33,1220.33,345.67,1219.67,346,1219Z"/>
    </g>
    <g id="mouth_Image" data-name="mouth Image">
      <image id="mouth_Image-2" data-name="mouth Image" width="148" height="132" transform="translate(340 1279)" xlink:href="theDragon2.png"/>
    </g>
    <g id="shadow" data-name="shadow">
      <image id="Layer_11_Image" data-name="Layer 11 Image" width="1846" height="1467" transform="translate(32 168)" xlink:href="theDragon3.png"/>
    </g>
    <g id="tail_crystals">
      <image id="tail_crystals-2" class="hide" data-feature="tailCrystals" width="620" height="856" transform="translate(1111 155)" xlink:href="theDragon4.png"/>
    </g>
    <g id="wing_crystals">
      <image id="wing_crystals-2" class="hide" data-feature="wingCrystals" width="770" height="399" transform="translate(261 378)" xlink:href="theDragon5.png"/>
    </g>
    <g id="neck_crystals">
      <image id="neck_crystals-2" class="hide" data-feature="neckCrystals" width="597" height="393" transform="translate(153 770)" xlink:href="theDragon6.png"/>
    </g>
    <g id="horns">
      <image id="head_crystals-2" class="hide" data-feature="horns" width="328" height="459" transform="translate(121 878)" xlink:href="theDragon7.png"/>
    </g>
    <g id="leg_crystals">
      <image id="leg_crystals-2" class="hide" data-feature="legCrystals" width="446" height="334" transform="translate(586 1120)" xlink:href="theDragon8.png"/>
    </g>
  <g class="cls-3">
    <g id="saddle">
      <image id="Layer_13_Image" class="hide" data-feature="saddle" Image" width="1920" height="1920" xlink:href="theDragon10.png"/>
    </g>
  </g>
</svg>
