<?xml version="1.0" standalone="no"?>
<!DOCTYPE svg PUBLIC "-//W3C//DTD SVG 20010904//EN"
 "http://www.w3.org/TR/2001/REC-SVG-20010904/DTD/svg10.dtd">
<svg version="1.0" xmlns="http://www.w3.org/2000/svg"
 width="416.000000pt" height="416.000000pt" viewBox="0 0 416.000000 416.000000"
 preserveAspectRatio="xMidYMid meet">
<metadata>
Created by potrace 1.14, written by Peter Selinger 2001-2017
</metadata>
<g transform="translate(0.000000,416.000000) scale(0.100000,-0.100000)"
fill="#000000" stroke="none">
<path d="M2589 4120 c-4 -50 2 -128 21 -270 5 -36 8 -142 8 -236 0 -94 2 -177
6 -183 4 -6 3 -11 -2 -11 -6 0 -8 -8 -5 -18 3 -15 -6 -24 -46 -40 -27 -12 -53
-22 -58 -22 -18 0 -104 -90 -97 -101 4 -7 3 -9 -4 -5 -6 3 -13 -2 -16 -12 -5
-16 -38 -29 -118 -48 -28 -6 -128 -111 -128 -133 0 -6 -4 -11 -10 -11 -21 0
-26 -3 -51 -29 -20 -22 -34 -27 -66 -25 -95 4 -176 -50 -379 -251 -159 -158
-249 -269 -285 -349 -15 -36 -23 -45 -30 -35 -5 8 -9 10 -9 6 0 -4 -6 -2 -14
5 -10 9 -11 17 -4 26 6 6 6 12 1 12 -5 0 -15 -6 -22 -12 -7 -7 -12 -8 -11 -3
5 21 0 36 -10 30 -5 -3 -10 1 -10 10 0 9 -4 13 -10 10 -5 -3 -10 3 -10 15 0
12 -4 18 -10 15 -5 -3 -10 -1 -10 6 0 7 -3 9 -7 6 -3 -4 -15 7 -25 24 -12 19
-24 29 -33 25 -18 -7 -20 5 -3 22 16 16 -4 16 -21 0 -11 -10 -13 -10 -7 0 4 6
2 12 -4 12 -6 0 -8 5 -5 10 3 6 -1 10 -10 10 -10 0 -13 5 -9 12 4 6 3 8 -4 4
-6 -3 -17 0 -25 8 -8 8 -17 12 -21 9 -3 -4 -6 -1 -6 6 0 6 -10 22 -21 34 -12
12 -18 15 -14 7 5 -8 -4 -4 -18 9 -14 13 -25 29 -24 35 1 6 -4 10 -10 8 -7 -1
-13 7 -13 18 0 11 -5 20 -11 20 -5 0 -7 -6 -3 -12 6 -11 -6 -2 -46 31 -3 2 4
1 15 -3 19 -7 18 -6 -2 13 -12 12 -27 21 -33 21 -6 0 -8 5 -5 10 3 6 1 10 -5
10 -6 0 -8 4 -5 10 3 6 -1 7 -9 4 -11 -4 -16 0 -16 11 0 9 -4 13 -10 10 -5 -3
-10 -1 -10 5 0 6 -6 18 -14 26 -11 11 -16 11 -19 1 -3 -6 -6 -4 -6 7 -1 21
-39 58 -52 50 -5 -3 -6 2 -3 10 5 14 -42 73 -56 69 -3 -1 -7 1 -10 4 -3 4 1 3
8 -1 6 -4 12 -3 12 2 0 11 -173 172 -184 172 -4 0 -4 -6 0 -12 4 -8 3 -10 -2
-5 -5 5 -9 12 -9 16 0 16 -55 72 -65 66 -6 -4 -9 -1 -8 7 2 7 -3 12 -10 10 -8
-1 -11 1 -8 6 6 11 -38 54 -47 47 -4 -3 -5 -2 -2 2 6 7 -34 53 -45 53 -4 0 -7
-10 -6 -22 0 -11 -6 -23 -14 -25 -9 -3 -11 -1 -5 4 28 22 -11 100 -44 88 -8
-3 -12 -3 -8 1 8 8 -11 34 -24 34 -11 0 11 -40 31 -57 8 -7 12 -13 7 -13 -12
0 23 -63 47 -83 11 -10 15 -15 7 -11 -16 8 -18 13 43 -109 26 -53 52 -94 57
-91 5 3 6 -1 4 -9 -3 -7 7 -32 22 -54 45 -67 243 -284 254 -278 5 4 6 -2 2
-11 -5 -14 -3 -16 11 -11 10 4 15 3 11 -4 -8 -13 66 -90 78 -82 6 3 7 1 3 -5
-6 -11 23 -45 165 -197 26 -27 66 -71 89 -97 23 -26 47 -45 53 -41 6 3 7 1 3
-5 -4 -7 -3 -12 2 -12 5 0 9 -20 9 -44 0 -24 7 -54 17 -67 62 -89 194 -294
191 -297 -4 -4 -51 29 -115 81 -19 15 -40 31 -45 35 -13 9 -134 102 -155 119
-155 126 -203 162 -211 157 -5 -3 -9 -1 -9 4 0 6 -13 15 -30 21 -16 5 -30 8
-30 5 0 -3 -7 2 -16 10 -8 9 -19 14 -24 11 -5 -3 -10 -2 -12 3 -4 10 -90 43
-96 37 -8 -8 20 -65 29 -59 5 3 6 -3 2 -12 -4 -11 -3 -15 4 -11 7 5 9 0 6 -11
-2 -11 2 -25 10 -33 7 -8 12 -20 9 -27 -2 -6 1 -12 7 -12 6 0 10 -3 10 -7 -3
-20 2 -34 11 -28 5 3 7 0 4 -8 -3 -8 0 -18 5 -22 6 -3 10 -9 7 -13 -2 -4 17
-27 42 -52 25 -25 41 -39 37 -31 -5 9 -4 12 3 7 7 -4 12 -13 12 -19 0 -14 66
-77 80 -77 6 0 9 -4 8 -8 -2 -4 16 -27 40 -49 23 -23 42 -41 42 -39 0 2 17
-13 38 -33 67 -64 137 -113 146 -103 4 4 6 2 4 -3 -1 -6 1 -11 6 -12 5 0 13
-8 18 -17 5 -9 16 -16 23 -16 8 0 15 -5 15 -11 0 -5 5 -7 10 -4 6 3 10 2 10
-2 0 -5 16 -17 35 -27 19 -11 35 -23 35 -28 0 -4 9 -8 20 -8 10 0 24 -9 30
-20 6 -11 8 -20 4 -20 -3 0 -2 -6 4 -13 6 -7 7 -19 3 -26 -7 -10 -18 -8 -55
13 -25 14 -46 23 -46 21 0 -3 -10 0 -22 8 -47 27 -94 3 -77 -39 5 -14 9 -38 9
-54 0 -15 13 -55 29 -87 16 -32 37 -75 45 -96 16 -40 18 -37 -28 -51 -17 -6
-47 -94 -34 -102 6 -4 5 -10 -3 -14 -10 -7 -10 -11 1 -24 7 -9 10 -19 7 -23
-4 -3 0 -15 8 -27 20 -27 19 -36 -2 -36 -12 0 -9 -5 11 -15 16 -8 44 -28 62
-44 l33 -30 -42 -6 c-55 -8 -81 -13 -84 -15 -4 -3 -13 -5 -66 -14 -27 -4 -59
-10 -70 -13 -27 -6 -49 -9 -102 -17 -22 -3 -65 -10 -95 -16 -61 -12 -99 -18
-145 -24 -16 -2 -42 -9 -57 -15 -16 -6 -28 -8 -28 -5 0 2 -13 -2 -30 -11 -16
-9 -30 -13 -30 -9 0 4 -7 0 -17 -7 -9 -8 -18 -13 -20 -11 -8 6 -23 1 -23 -8 0
-5 6 -7 14 -4 7 3 30 -2 50 -10 25 -10 34 -11 29 -3 -5 9 -3 9 8 1 8 -7 30
-15 49 -18 19 -3 60 -10 90 -16 89 -16 222 -32 375 -45 22 -1 40 -4 40 -5 0
-10 237 -16 282 -6 11 2 29 -1 39 -9 22 -16 29 -79 8 -71 -8 3 -14 1 -14 -4 0
-5 -7 -7 -15 -4 -8 4 -23 0 -32 -7 -14 -12 -16 -12 -8 0 6 11 4 13 -11 7 -10
-5 -29 -9 -40 -10 -12 -1 -29 -8 -38 -15 -14 -12 -16 -12 -10 2 4 12 1 14 -15
10 -12 -3 -21 -9 -21 -13 0 -4 -16 -6 -35 -5 -26 1 -35 -3 -36 -14 0 -12 -3
-11 -9 4 -5 11 -9 14 -9 7 -1 -7 -5 -11 -10 -8 -5 4 -18 3 -29 -1 -21 -8 -20
-8 2 -29 13 -11 31 -19 39 -18 10 1 14 -3 10 -12 -3 -8 5 -16 21 -20 14 -3 23
-10 20 -15 -3 -5 -2 -9 3 -9 4 0 24 -14 43 -30 19 -17 46 -40 60 -51 45 -38
94 -85 149 -144 30 -31 68 -62 84 -67 18 -7 26 -15 23 -24 -3 -8 -1 -14 4 -14
6 0 9 -3 9 -7 -4 -24 5 -35 35 -48 51 -21 2161 -22 2169 -1 11 29 -1 143 -22
196 -11 30 -48 98 -82 150 -57 87 -87 139 -142 243 -10 21 -22 66 -24 100 -5
60 -3 66 51 174 31 61 56 123 56 137 0 14 -14 42 -32 63 -43 49 -100 113 -114
127 -8 8 -5 19 11 41 32 42 40 88 20 105 -25 21 -38 50 -27 63 14 18 21 57 10
57 -5 0 -6 6 -1 12 4 7 8 26 9 42 4 53 25 86 68 108 23 12 43 20 45 18 2 -2
30 18 62 44 58 47 60 48 111 42 29 -4 55 -10 58 -14 3 -5 27 -9 55 -11 27 -2
56 -6 65 -11 8 -4 32 -10 52 -13 42 -6 159 -56 170 -72 4 -5 8 475 8 1068 l0
1079 -42 -7 c-94 -15 -119 -25 -113 -45 5 -17 2 -18 -32 -12 -38 6 -119 7
-363 3 -133 -3 -156 0 -188 20 -17 11 -29 9 -79 -13 -32 -14 -66 -28 -75 -31
-10 -4 -18 -11 -18 -17 0 -6 -4 -9 -8 -6 -5 3 -20 -1 -35 -9 -15 -8 -27 -12
-27 -9 0 2 -10 -2 -23 -11 -13 -8 -27 -12 -30 -8 -4 3 -7 1 -7 -6 0 -7 -4 -10
-10 -6 -5 3 -19 -4 -30 -15 -11 -11 -25 -18 -30 -15 -5 3 -12 0 -16 -6 -5 -8
-3 -9 6 -4 8 5 11 4 7 -3 -4 -5 -17 -8 -29 -4 -15 4 -19 2 -14 -7 5 -8 3 -12
-5 -10 -28 3 -40 -1 -33 -13 4 -7 3 -8 -5 -4 -6 4 -18 2 -26 -4 -8 -6 -20 -8
-26 -4 -8 5 -9 3 -4 -6 6 -10 4 -12 -9 -7 -11 5 -15 3 -10 -5 5 -7 -1 -9 -19
-6 -15 3 -24 1 -21 -3 7 -11 -35 -32 -52 -25 -8 3 -11 12 -7 22 4 12 3 15 -5
10 -15 -9 -15 -5 -2 28 5 15 6 26 1 26 -11 0 -8 41 4 60 6 9 4 11 -5 5 -10 -6
-12 -4 -7 8 4 10 0 20 -11 26 -10 6 -12 11 -4 11 6 0 12 7 12 16 0 8 -3 13 -7
11 -5 -3 -9 18 -10 47 -1 31 -12 75 -26 107 -48 104 -65 145 -92 209 -29 70
-44 93 -46 70z m18 -42 c-3 -8 -6 -5 -6 6 -1 11 2 17 5 13 3 -3 4 -12 1 -19z
m21 -63 c-3 -3 -9 2 -12 12 -6 14 -5 15 5 6 7 -7 10 -15 7 -18z m-3 -24 c3 -5
2 -12 -3 -15 -5 -3 -9 1 -9 9 0 17 3 19 12 6z m40 -102 c8 -25 -9 -47 -20 -28
-5 8 -4 10 3 5 7 -4 12 -1 12 8 0 8 -8 20 -17 25 -16 9 -17 10 -1 11 9 0 20
-9 23 -21z m29 -37 c3 -5 -1 -9 -9 -9 -8 0 -12 4 -9 9 3 4 7 8 9 8 2 0 6 -4 9
-8z m1 -39 c3 -10 6 -20 5 -22 -1 -2 4 -8 12 -12 8 -5 9 -9 2 -9 -15 0 -36 25
-27 33 3 4 1 7 -5 7 -7 0 -12 5 -12 10 0 17 17 11 25 -7z m9 -83 c-6 -5 -24
21 -24 34 0 6 6 1 14 -10 8 -10 12 -21 10 -24z m21 -10 c-3 -5 -12 -10 -18
-10 -7 0 -6 4 3 10 19 12 23 12 15 0z m-35 -20 c0 -5 -2 -10 -4 -10 -3 0 -8 5
-11 10 -3 6 -1 10 4 10 6 0 11 -4 11 -10z m27 -17 c-9 -2 -15 -8 -12 -13 3 -5
13 -7 23 -4 14 5 14 4 2 -4 -8 -6 -18 -8 -24 -5 -5 4 -7 -1 -3 -10 3 -10 2
-17 -4 -17 -7 0 -7 34 0 58 1 1 9 1 19 1 16 -1 16 -2 -1 -6z m24 -70 c11 -15
11 -16 0 -6 -15 13 -44 6 -35 -8 3 -5 0 -9 -5 -9 -22 0 -1 33 25 40 1 0 8 -8
15 -17z m-11 -37 c0 -3 -4 -8 -10 -11 -5 -3 -10 -1 -10 4 0 6 5 11 10 11 6 0
10 -2 10 -4z m-20 -36 c0 -5 -2 -10 -4 -10 -3 0 -8 5 -11 10 -3 6 -1 10 4 10
6 0 11 -4 11 -10z m40 -14 c0 -3 -4 -8 -10 -11 -5 -3 -10 -1 -10 4 0 6 5 11
10 11 6 0 10 -2 10 -4z m-2510 -166 c0 -5 -2 -10 -4 -10 -3 0 -8 5 -11 10 -3
6 -1 10 4 10 6 0 11 -4 11 -10z m60 -46 c0 -2 -7 -4 -15 -4 -8 0 -15 4 -15 10
0 5 7 7 15 4 8 -4 15 -8 15 -10z m30 -8 c0 -3 -4 -8 -10 -11 -5 -3 -10 -1 -10
4 0 6 5 11 10 11 6 0 10 -2 10 -4z m-30 -27 c0 -5 -4 -9 -8 -9 -5 0 -9 7 -9
15 0 8 4 12 9 9 4 -3 8 -9 8 -15z m37 -14 c-7 -17 -27 -21 -27 -4 0 5 5 7 10
4 6 -3 10 2 10 11 0 10 3 15 6 11 4 -3 4 -13 1 -22z m28 -15 c-3 -5 -12 -10
-18 -10 -7 0 -6 4 3 10 19 12 23 12 15 0z m3 -57 c0 -17 -3 -21 -9 -12 -4 7
-6 16 -3 20 2 4 0 10 -6 14 -5 3 -10 1 -10 -6 0 -7 -3 -10 -6 -6 -10 10 6 26
20 21 7 -3 14 -17 14 -31z m38 -18 c1 -8 -2 -13 -7 -9 -5 3 -9 0 -9 -5 0 -6
-5 -11 -12 -11 -6 0 -3 9 7 20 10 11 13 20 7 20 -7 0 -12 5 -12 12 0 17 23 -7
26 -27z m-60 -10 c1 -8 -2 -15 -6 -15 -5 0 -8 9 -7 20 1 21 10 18 13 -5z m84
-10 c0 -2 -10 -9 -22 -15 -22 -11 -22 -10 -4 4 21 17 26 19 26 11z m-50 -19
c0 -2 -7 -7 -16 -10 -8 -3 -12 -2 -9 4 6 10 25 14 25 6z m71 -16 c6 0 7 5 3
12 -5 7 -3 8 5 3 9 -5 9 -11 3 -17 -12 -12 -32 -2 -31 15 0 9 2 9 6 0 2 -7 9
-13 14 -13z m-3 -29 c9 -6 12 -11 5 -11 -15 0 -43 28 -43 43 0 7 5 4 11 -5 5
-10 17 -22 27 -27z m42 15 c0 -3 -4 -8 -10 -11 -5 -3 -10 -1 -10 4 0 6 5 11
10 11 6 0 10 -2 10 -4z m-88 -42 c-9 -16 -10 -14 -9 8 1 15 6 23 11 18 4 -4 4
-16 -2 -26z m97 -18 c-3 -3 -11 5 -18 17 -13 21 -12 21 5 5 10 -10 16 -20 13
-22z m-29 3 c6 -11 5 -16 -5 -16 -7 0 -11 7 -7 15 3 9 1 13 -4 9 -6 -3 -16 -2
-24 3 -11 7 -9 9 8 7 13 -1 28 -9 32 -18z m-40 -3 c0 -2 -7 -7 -16 -10 -8 -3
-12 -2 -9 4 6 10 25 14 25 6z m120 -16 c-9 -17 -44 -20 -57 -5 -5 4 -2 5 5 1
7 -4 12 -2 12 5 0 8 5 7 17 -2 14 -12 16 -12 11 2 -4 9 -1 16 7 16 10 0 11 -5
5 -17z m-65 -20 c3 -6 -1 -7 -9 -4 -18 7 -21 14 -7 14 6 0 13 -4 16 -10z m96
-4 c-9 -11 -9 -15 0 -18 9 -3 10 -8 0 -24 -11 -19 -11 -19 -9 1 2 11 -3 20 -9
20 -7 0 -12 5 -10 10 1 6 5 9 10 8 4 -2 7 2 7 7 0 6 5 10 11 10 8 0 8 -4 0
-14z m-54 -21 c0 -8 -4 -12 -9 -9 -5 3 -6 10 -3 15 9 13 12 11 12 -6z m-30 -1
c-3 -3 -12 -4 -19 -1 -8 3 -5 6 6 6 11 1 17 -2 13 -5z m116 -11 c-5 -12 -3
-14 7 -8 9 6 8 1 -3 -14 -16 -24 -13 -56 6 -44 6 3 7 1 3 -5 -11 -18 -32 -3
-32 23 0 14 4 25 9 25 4 0 5 5 2 10 -3 6 -3 15 0 20 10 16 15 12 8 -7z m-53
-12 c0 -5 -7 -12 -16 -15 -14 -5 -15 -4 -4 9 14 17 20 19 20 6z m105 -42 c1
-11 -7 -24 -19 -30 -20 -10 -20 -10 -2 5 19 15 18 16 -5 25 l-24 10 23 0 c16
1 21 5 16 14 -4 6 -3 9 1 4 5 -4 9 -17 10 -28z m-135 7 c0 -2 -7 -7 -16 -10
-8 -3 -12 -2 -9 4 6 10 25 14 25 6z m36 -45 c-4 -5 -1 -12 4 -14 6 -3 5 -4 -2
-3 -15 3 -23 26 -8 26 6 0 9 -4 6 -9z m141 3 c-2 -3 -17 -7 -33 -10 -17 -2
-24 -1 -17 4 13 8 58 14 50 6z m20 -21 c0 -16 -2 -22 -4 -15 -3 6 -9 12 -14
12 -6 0 -8 -4 -5 -8 2 -4 0 -14 -5 -22 -7 -12 -8 -10 -6 6 2 15 24 51 33 54 1
0 1 -12 1 -27z m-120 -8 c0 -8 -4 -12 -9 -9 -5 3 -6 10 -3 15 9 13 12 11 12
-6z m64 -22 c-12 -20 -14 -14 -5 12 4 9 9 14 11 11 3 -2 0 -13 -6 -23z m-31
13 c0 -2 -8 -10 -17 -17 -16 -13 -17 -12 -4 4 13 16 21 21 21 13z m125 -6 c3
-5 1 -10 -4 -10 -6 0 -11 5 -11 10 0 6 2 10 4 10 3 0 8 -4 11 -10z m5 -32 c0
7 4 12 8 12 5 0 9 -7 9 -15 0 -8 -4 -12 -9 -9 -4 3 -8 0 -8 -5 0 -6 -9 -2 -20
9 -11 11 -20 23 -20 27 0 3 9 -2 20 -12 11 -10 20 -13 20 -7z m-124 -24 c1 -9
0 -13 -4 -10 -3 4 -7 14 -8 22 -1 9 0 13 4 10 3 -4 7 -14 8 -22z m63 3 c0 -8
-2 -8 -6 1 -4 10 -10 9 -27 -5 l-21 -18 19 22 c19 23 37 22 35 0z m126 -15
c-3 -3 -11 0 -18 7 -9 10 -8 11 6 5 10 -3 15 -9 12 -12z m-29 -21 c-4 -6 -13
-11 -19 -10 -9 0 -9 2 1 6 19 7 14 23 -5 17 -15 -5 -16 -4 -3 5 17 12 36 -1
26 -18z m-102 11 c3 -5 -1 -9 -9 -9 -8 0 -12 4 -9 9 3 4 7 8 9 8 2 0 6 -4 9
-8z m146 -23 c0 -5 5 -7 11 -3 8 5 8 1 0 -14 -7 -14 -8 -23 -1 -27 13 -8 13
-25 0 -25 -5 0 -9 6 -7 13 1 7 -8 11 -23 10 l-25 -2 23 11 c24 12 25 29 2 36
-8 3 -10 0 -5 -8 5 -9 4 -11 -4 -6 -6 4 -9 12 -6 17 8 12 35 11 35 -2z m-45
-19 c3 -5 1 -10 -4 -10 -6 0 -11 5 -11 10 0 6 2 10 4 10 3 0 8 -4 11 -10z
m-35 -20 c0 -5 -2 -10 -4 -10 -3 0 -8 5 -11 10 -3 6 -1 10 4 10 6 0 11 -4 11
-10z m140 6 c0 -2 -7 -9 -15 -16 -13 -11 -14 -10 -9 4 5 14 24 23 24 12z
m-156 -24 c3 -5 -1 -9 -9 -9 -8 0 -12 4 -9 9 3 4 7 8 9 8 2 0 6 -4 9 -8z m158
-4 c-9 -9 -3 -16 26 -30 22 -10 27 -15 12 -11 -22 5 -23 4 -11 -11 9 -10 10
-16 2 -16 -6 0 -11 4 -11 10 0 5 -8 7 -17 3 -16 -5 -15 -4 1 9 18 14 18 15 -4
21 -20 5 -21 8 -10 21 7 9 15 16 18 16 3 0 1 -5 -6 -12z m32 -4 c3 -8 2 -12
-4 -9 -6 3 -10 10 -10 16 0 14 7 11 14 -7z m-60 -44 c-6 -6 -10 -2 -11 12 -2
16 1 18 10 9 7 -7 8 -14 1 -21z m-101 5 c4 -8 3 -16 -1 -19 -4 -3 -9 4 -9 15
-2 23 3 25 10 4z m72 -15 c3 -6 -1 -7 -9 -4 -18 7 -21 14 -7 14 6 0 13 -4 16
-10z m146 -5 c5 4 6 -1 3 -9 -5 -12 -9 -13 -19 -3 -7 7 -10 16 -7 22 3 5 7 4
10 -3 2 -7 8 -10 13 -7z m-94 -20 c0 -8 -4 -12 -9 -9 -4 3 -8 9 -8 15 0 5 4 9
8 9 5 0 9 -7 9 -15z m81 -22 c9 -15 10 -23 3 -23 -6 0 -11 7 -11 15 0 9 -6 12
-17 9 -14 -5 -15 -4 -4 4 11 8 10 11 -5 15 -18 6 -18 6 0 4 10 -1 25 -12 34
-24z m23 4 c-10 -9 -11 -8 -5 6 3 10 9 15 12 12 3 -3 0 -11 -7 -18z m34 -7
c-3 -5 -1 -10 6 -10 7 0 10 -2 7 -5 -3 -3 -13 -2 -22 1 -14 5 -15 9 -4 15 17
11 20 11 13 -1z m-79 -36 c1 -9 0 -13 -4 -10 -3 4 -7 14 -8 22 -1 9 0 13 4 10
3 -4 7 -14 8 -22z m72 -5 c19 -30 8 -34 -12 -4 -9 14 -13 25 -9 25 5 0 14 -9
21 -21z m-27 -6 c13 -16 12 -17 -3 -4 -17 13 -22 21 -14 21 2 0 10 -8 17 -17z
m71 -7 c-3 -11 -1 -17 5 -13 6 4 19 0 29 -9 18 -14 18 -15 -2 -5 -12 6 -24 8
-27 4 -4 -3 -10 3 -14 13 -3 10 -11 22 -17 26 -6 4 -1 6 10 6 16 -2 20 -7 16
-22z m-87 -16 c3 -6 -1 -7 -9 -4 -18 7 -21 14 -7 14 6 0 13 -4 16 -10z m75
-14 c0 -2 -7 -7 -16 -10 -8 -3 -12 -2 -9 4 6 10 25 14 25 6z m-83 -31 c0 -8
-4 -12 -9 -9 -5 3 -6 10 -3 15 9 13 12 11 12 -6z m92 1 c9 -11 9 -16 -1 -22
-7 -4 -10 -4 -6 1 4 4 3 14 -3 22 -6 7 -9 13 -6 13 2 0 10 -6 16 -14z m58 -12
c-3 -3 -12 -4 -19 -1 -8 3 -5 6 6 6 11 1 17 -2 13 -5z m-67 -104 c0 -5 -2 -10
-4 -10 -3 0 -8 5 -11 10 -3 6 -1 10 4 10 6 0 11 -4 11 -10z m-465 -39 c3 -5 2
-12 -3 -15 -5 -3 -9 1 -9 9 0 17 3 19 12 6z m505 -15 c0 -2 -7 -7 -16 -10 -8
-3 -12 -2 -9 4 6 10 25 14 25 6z m-420 -26 c0 -5 -2 -10 -4 -10 -3 0 -8 5 -11
10 -3 6 -1 10 4 10 6 0 11 -4 11 -10z m15 -80 c3 -5 1 -10 -4 -10 -6 0 -11 5
-11 10 0 6 2 10 4 10 3 0 8 -4 11 -10z m500 -30 c3 -5 1 -10 -4 -10 -6 0 -11
5 -11 10 0 6 2 10 4 10 3 0 8 -4 11 -10z m-495 -10 c0 -5 -2 -10 -4 -10 -3 0
-8 5 -11 10 -3 6 -1 10 4 10 6 0 11 -4 11 -10z m530 -16 c0 -8 -19 -13 -24 -6
-3 5 1 9 9 9 8 0 15 -2 15 -3z m-555 -32 c-3 -3 -11 0 -18 7 -9 10 -8 11 6 5
10 -3 15 -9 12 -12z m565 8 c0 -5 -5 -10 -11 -10 -5 0 -7 5 -4 10 3 6 8 10 11
10 2 0 4 -4 4 -10z m24 -40 c-6 -6 -10 -3 -10 10 0 13 4 16 10 10 7 -7 7 -13
0 -20z m-449 0 c3 -5 1 -10 -4 -10 -6 0 -11 5 -11 10 0 6 2 10 4 10 3 0 8 -4
11 -10z m45 0 c0 -5 -5 -10 -11 -10 -5 0 -7 5 -4 10 3 6 8 10 11 10 2 0 4 -4
4 -10z m-45 -40 c3 -5 1 -10 -4 -10 -6 0 -11 5 -11 10 0 6 2 10 4 10 3 0 8 -4
11 -10z m45 0 c0 -5 -5 -10 -11 -10 -5 0 -7 5 -4 10 3 6 8 10 11 10 2 0 4 -4
4 -10z m235 -69 c3 -5 2 -12 -3 -15 -5 -3 -9 1 -9 9 0 17 3 19 12 6z m-90 -31
c-3 -5 -12 -10 -18 -10 -7 0 -6 4 3 10 19 12 23 12 15 0z m-67 -25 c-3 -3 -9
2 -12 12 -6 14 -5 15 5 6 7 -7 10 -15 7 -18z m57 -14 c3 -5 2 -12 -3 -15 -5
-3 -9 1 -9 9 0 17 3 19 12 6z m145 -15 c0 -3 -4 -8 -10 -11 -5 -3 -10 -1 -10
4 0 6 5 11 10 11 6 0 10 -2 10 -4z m40 -6 c0 -5 -2 -10 -4 -10 -3 0 -8 5 -11
10 -3 6 -1 10 4 10 6 0 11 -4 11 -10z m-40 -34 c0 -3 -4 -8 -10 -11 -5 -3 -10
-1 -10 4 0 6 5 11 10 11 6 0 10 -2 10 -4z m35 -6 c3 -5 1 -10 -4 -10 -6 0 -11
5 -11 10 0 6 2 10 4 10 3 0 8 -4 11 -10z m45 0 c0 -5 -2 -10 -4 -10 -3 0 -8 5
-11 10 -3 6 -1 10 4 10 6 0 11 -4 11 -10z m-45 -40 c3 -5 1 -10 -4 -10 -6 0
-11 5 -11 10 0 6 2 10 4 10 3 0 8 -4 11 -10z m45 0 c0 -5 -5 -10 -11 -10 -5 0
-7 5 -4 10 3 6 8 10 11 10 2 0 4 -4 4 -10z m40 0 c0 -5 -5 -10 -11 -10 -5 0
-7 5 -4 10 3 6 8 10 11 10 2 0 4 -4 4 -10z m-20 -296 c0 -8 -19 -13 -24 -6 -3
5 1 9 9 9 8 0 15 -2 15 -3z m15 -64 c3 -5 1 -10 -4 -10 -6 0 -11 5 -11 10 0 6
2 10 4 10 3 0 8 -4 11 -10z m-44 -133 c-10 -9 -11 -8 -5 6 3 10 9 15 12 12 3
-3 0 -11 -7 -18z m9 -261 c0 -3 -4 -8 -10 -11 -5 -3 -10 -1 -10 4 0 6 5 11 10
11 6 0 10 -2 10 -4z m20 -46 c0 -5 -2 -10 -4 -10 -3 0 -8 5 -11 10 -3 6 -1 10
4 10 6 0 11 -4 11 -10z m-460 -194 c0 -3 -4 -8 -10 -11 -5 -3 -10 -1 -10 4 0
6 5 11 10 11 6 0 10 -2 10 -4z m40 -6 c0 -5 -2 -10 -4 -10 -3 0 -8 5 -11 10
-3 6 -1 10 4 10 6 0 11 -4 11 -10z m0 -60 c0 -5 -2 -10 -4 -10 -3 0 -8 5 -11
10 -3 6 -1 10 4 10 6 0 11 -4 11 -10z m55 -20 c3 -5 1 -10 -4 -10 -6 0 -11 5
-11 10 0 6 2 10 4 10 3 0 8 -4 11 -10z m381 -2 c3 -4 -1 -5 -10 -4 -8 1 -18 5
-22 8 -3 4 1 5 10 4 8 -1 18 -5 22 -8z m119 2 c3 -5 1 -10 -4 -10 -6 0 -11 5
-11 10 0 6 2 10 4 10 3 0 8 -4 11 -10z m-65 -196 c0 -8 -19 -13 -24 -6 -3 5 1
9 9 9 8 0 15 -2 15 -3z m-146 -22 c3 -5 -1 -9 -9 -9 -8 0 -12 4 -9 9 3 4 7 8
9 8 2 0 6 -4 9 -8z m73 -27 c0 -8 -4 -12 -9 -9 -5 3 -6 10 -3 15 9 13 12 11
12 -6z m-77 -15 c0 -5 -2 -10 -4 -10 -3 0 -8 5 -11 10 -3 6 -1 10 4 10 6 0 11
-4 11 -10z m50 4 c0 -8 -19 -13 -24 -6 -3 5 1 9 9 9 8 0 15 -2 15 -3z m492
-371 c-6 -2 -9 -10 -6 -15 4 -7 2 -8 -5 -4 -13 9 -5 26 12 25 9 0 8 -2 -1 -6z
m-23 -31 c7 -13 6 -19 -2 -19 -7 0 -13 9 -13 19 0 10 1 18 3 18 1 0 7 -8 12
-18z"/>
<path d="M965 2680 c3 -5 8 -10 11 -10 2 0 4 5 4 10 0 6 -5 10 -11 10 -5 0 -7
-4 -4 -10z"/>
</g>
</svg>
